<?xml version="1.0" encoding="UTF-8" standalone="no"?>
<!DOCTYPE svg PUBLIC "-//W3C//DTD SVG 1.1//EN"
 "http://www.w3.org/Graphics/SVG/1.1/DTD/svg11.dtd">
<!-- Generated by graphviz version 8.0.5 (20230430.1635)
 -->
<!-- Title: G Pages: 1 -->
<svg width="1182pt" height="256pt"
 viewBox="0.00 0.00 1181.95 255.95" xmlns="http://www.w3.org/2000/svg" xmlns:xlink="http://www.w3.org/1999/xlink">
<g id="graph0" class="graph" transform="scale(1 1) rotate(0) translate(21.6 234.35)">
<title>G</title>
<polygon fill="#111111" stroke="none" points="-21.6,21.6 -21.6,-234.35 1160.35,-234.35 1160.35,21.6 -21.6,21.6"/>
<!-- components/Button/Button.stories.tsx -->
<g id="node1" class="node">
<title>components/Button/Button.stories.tsx</title>
<path fill="none" stroke="#c6c5fe" d="M465.08,-149.75C465.08,-149.75 240.67,-149.75 240.67,-149.75 236.71,-149.75 232.75,-145.79 232.75,-141.83 232.75,-141.83 232.75,-133.92 232.75,-133.92 232.75,-129.96 236.71,-126 240.67,-126 240.67,-126 465.08,-126 465.08,-126 469.04,-126 473,-129.96 473,-133.92 473,-133.92 473,-141.83 473,-141.83 473,-145.79 469.04,-149.75 465.08,-149.75"/>
<text text-anchor="middle" x="352.88" y="-132.45" font-family="Arial" font-size="14.00" fill="#c6c5fe">components/Button/Button.stories.tsx</text>
</g>
<!-- components/Button/Button.tsx -->
<g id="node2" class="node">
<title>components/Button/Button.tsx</title>
<path fill="none" stroke="#cfffac" d="M751.46,-149.75C751.46,-149.75 570.54,-149.75 570.54,-149.75 566.58,-149.75 562.62,-145.79 562.62,-141.83 562.62,-141.83 562.62,-133.92 562.62,-133.92 562.62,-129.96 566.58,-126 570.54,-126 570.54,-126 751.46,-126 751.46,-126 755.42,-126 759.38,-129.96 759.38,-133.92 759.38,-133.92 759.38,-141.83 759.38,-141.83 759.38,-145.79 755.42,-149.75 751.46,-149.75"/>
<text text-anchor="middle" x="661" y="-132.45" font-family="Arial" font-size="14.00" fill="#cfffac">components/Button/Button.tsx</text>
</g>
<!-- components/Button/Button.stories.tsx&#45;&gt;components/Button/Button.tsx -->
<g id="edge1" class="edge">
<title>components/Button/Button.stories.tsx&#45;&gt;components/Button/Button.tsx</title>
<path fill="none" stroke="#757575" d="M473.11,-137.88C498.96,-137.88 526.17,-137.88 551.58,-137.88"/>
<polygon fill="#757575" stroke="#757575" points="551.35,-141.38 561.35,-137.88 551.35,-134.38 551.35,-141.38"/>
</g>
<!-- components/ThemeProvider/ThemeProvider.tsx -->
<g id="node3" class="node">
<title>components/ThemeProvider/ThemeProvider.tsx</title>
<path fill="none" stroke="#c6c5fe" d="M805.08,-65.75C805.08,-65.75 516.92,-65.75 516.92,-65.75 512.96,-65.75 509,-61.79 509,-57.83 509,-57.83 509,-49.92 509,-49.92 509,-45.96 512.96,-42 516.92,-42 516.92,-42 805.08,-42 805.08,-42 809.04,-42 813,-45.96 813,-49.92 813,-49.92 813,-57.83 813,-57.83 813,-61.79 809.04,-65.75 805.08,-65.75"/>
<text text-anchor="middle" x="661" y="-48.45" font-family="Arial" font-size="14.00" fill="#c6c5fe">components/ThemeProvider/ThemeProvider.tsx</text>
</g>
<!-- components/ThemeProvider/themeContext.ts -->
<g id="node4" class="node">
<title>components/ThemeProvider/themeContext.ts</title>
<path fill="none" stroke="#cfffac" d="M1130.83,-107.75C1130.83,-107.75 856.92,-107.75 856.92,-107.75 852.96,-107.75 849,-103.79 849,-99.83 849,-99.83 849,-91.92 849,-91.92 849,-87.96 852.96,-84 856.92,-84 856.92,-84 1130.83,-84 1130.83,-84 1134.79,-84 1138.75,-87.96 1138.75,-91.92 1138.75,-91.92 1138.75,-99.83 1138.75,-99.83 1138.75,-103.79 1134.79,-107.75 1130.83,-107.75"/>
<text text-anchor="middle" x="993.88" y="-90.45" font-family="Arial" font-size="14.00" fill="#cfffac">components/ThemeProvider/themeContext.ts</text>
</g>
<!-- components/ThemeProvider/ThemeProvider.tsx&#45;&gt;components/ThemeProvider/themeContext.ts -->
<g id="edge2" class="edge">
<title>components/ThemeProvider/ThemeProvider.tsx&#45;&gt;components/ThemeProvider/themeContext.ts</title>
<path fill="none" stroke="#757575" d="M759.48,-66.25C798.86,-71.25 844.44,-77.03 884.82,-82.16"/>
<polygon fill="#757575" stroke="#757575" points="884.16,-85.73 894.52,-83.52 885.04,-78.79 884.16,-85.73"/>
</g>
<!-- lib/localeStorage.ts -->
<g id="node5" class="node">
<title>lib/localeStorage.ts</title>
<path fill="none" stroke="#cfffac" d="M1050.96,-65.75C1050.96,-65.75 936.79,-65.75 936.79,-65.75 932.83,-65.75 928.88,-61.79 928.88,-57.83 928.88,-57.83 928.88,-49.92 928.88,-49.92 928.88,-45.96 932.83,-42 936.79,-42 936.79,-42 1050.96,-42 1050.96,-42 1054.92,-42 1058.88,-45.96 1058.88,-49.92 1058.88,-49.92 1058.88,-57.83 1058.88,-57.83 1058.88,-61.79 1054.92,-65.75 1050.96,-65.75"/>
<text text-anchor="middle" x="993.88" y="-48.45" font-family="Arial" font-size="14.00" fill="#cfffac">lib/localeStorage.ts</text>
</g>
<!-- components/ThemeProvider/ThemeProvider.tsx&#45;&gt;lib/localeStorage.ts -->
<g id="edge3" class="edge">
<title>components/ThemeProvider/ThemeProvider.tsx&#45;&gt;lib/localeStorage.ts</title>
<path fill="none" stroke="#757575" d="M813.4,-53.88C849.62,-53.88 886.76,-53.88 917.78,-53.88"/>
<polygon fill="#757575" stroke="#757575" points="917.48,-57.38 927.48,-53.88 917.48,-50.38 917.48,-57.38"/>
</g>
<!-- components/ThemeProvider/useTheme.ts -->
<g id="node6" class="node">
<title>components/ThemeProvider/useTheme.ts</title>
<path fill="none" stroke="#c6c5fe" d="M787.83,-107.75C787.83,-107.75 534.17,-107.75 534.17,-107.75 530.21,-107.75 526.25,-103.79 526.25,-99.83 526.25,-99.83 526.25,-91.92 526.25,-91.92 526.25,-87.96 530.21,-84 534.17,-84 534.17,-84 787.83,-84 787.83,-84 791.79,-84 795.75,-87.96 795.75,-91.92 795.75,-91.92 795.75,-99.83 795.75,-99.83 795.75,-103.79 791.79,-107.75 787.83,-107.75"/>
<text text-anchor="middle" x="661" y="-90.45" font-family="Arial" font-size="14.00" fill="#c6c5fe">components/ThemeProvider/useTheme.ts</text>
</g>
<!-- components/ThemeProvider/useTheme.ts&#45;&gt;components/ThemeProvider/themeContext.ts -->
<g id="edge4" class="edge">
<title>components/ThemeProvider/useTheme.ts&#45;&gt;components/ThemeProvider/themeContext.ts</title>
<path fill="none" stroke="#757575" d="M796.1,-95.88C809.88,-95.88 823.95,-95.88 837.93,-95.88"/>
<polygon fill="#757575" stroke="#757575" points="837.59,-99.38 847.59,-95.88 837.59,-92.38 837.59,-99.38"/>
</g>
<!-- components/ThemeProvider/useTheme.ts&#45;&gt;lib/localeStorage.ts -->
<g id="edge5" class="edge">
<title>components/ThemeProvider/useTheme.ts&#45;&gt;lib/localeStorage.ts</title>
<path fill="none" stroke="#757575" d="M759.48,-83.5C810.06,-77.08 870.9,-69.36 917.78,-63.41"/>
<polygon fill="#757575" stroke="#757575" points="917.99,-66.78 927.47,-62.05 917.1,-59.84 917.99,-66.78"/>
</g>
<!-- components/Tooltip/Tooltip.tsx -->
<g id="node7" class="node">
<title>components/Tooltip/Tooltip.tsx</title>
<path fill="none" stroke="#cfffac" d="M188.83,-86.75C188.83,-86.75 7.92,-86.75 7.92,-86.75 3.96,-86.75 0,-82.79 0,-78.83 0,-78.83 0,-70.92 0,-70.92 0,-66.96 3.96,-63 7.92,-63 7.92,-63 188.83,-63 188.83,-63 192.79,-63 196.75,-66.96 196.75,-70.92 196.75,-70.92 196.75,-78.83 196.75,-78.83 196.75,-82.79 192.79,-86.75 188.83,-86.75"/>
<text text-anchor="middle" x="98.38" y="-69.45" font-family="Arial" font-size="14.00" fill="#cfffac">components/Tooltip/Tooltip.tsx</text>
</g>
<!-- pages/_app.test.tsx -->
<g id="node8" class="node">
<title>pages/_app.test.tsx</title>
<path fill="none" stroke="#c6c5fe" d="M156.96,-44.75C156.96,-44.75 39.79,-44.75 39.79,-44.75 35.83,-44.75 31.88,-40.79 31.88,-36.83 31.88,-36.83 31.88,-28.92 31.88,-28.92 31.88,-24.96 35.83,-21 39.79,-21 39.79,-21 156.96,-21 156.96,-21 160.92,-21 164.88,-24.96 164.88,-28.92 164.88,-28.92 164.88,-36.83 164.88,-36.83 164.88,-40.79 160.92,-44.75 156.96,-44.75"/>
<text text-anchor="middle" x="98.38" y="-27.45" font-family="Arial" font-size="14.00" fill="#c6c5fe">pages/_app.test.tsx</text>
</g>
<!-- pages/_app.tsx -->
<g id="node9" class="node">
<title>pages/_app.tsx</title>
<path fill="none" stroke="#c6c5fe" d="M398.71,-44.75C398.71,-44.75 307.04,-44.75 307.04,-44.75 303.08,-44.75 299.12,-40.79 299.12,-36.83 299.12,-36.83 299.12,-28.92 299.12,-28.92 299.12,-24.96 303.08,-21 307.04,-21 307.04,-21 398.71,-21 398.71,-21 402.67,-21 406.62,-24.96 406.62,-28.92 406.62,-28.92 406.62,-36.83 406.62,-36.83 406.62,-40.79 402.67,-44.75 398.71,-44.75"/>
<text text-anchor="middle" x="352.88" y="-27.45" font-family="Arial" font-size="14.00" fill="#c6c5fe">pages/_app.tsx</text>
</g>
<!-- pages/_app.test.tsx&#45;&gt;pages/_app.tsx -->
<g id="edge6" class="edge">
<title>pages/_app.test.tsx&#45;&gt;pages/_app.tsx</title>
<path fill="none" stroke="#757575" d="M165.06,-32.88C202.96,-32.88 250.41,-32.88 288,-32.88"/>
<polygon fill="#757575" stroke="#757575" points="287.83,-36.38 297.83,-32.88 287.83,-29.38 287.83,-36.38"/>
</g>
<!-- pages/_app.tsx&#45;&gt;components/ThemeProvider/ThemeProvider.tsx -->
<g id="edge7" class="edge">
<title>pages/_app.tsx&#45;&gt;components/ThemeProvider/ThemeProvider.tsx</title>
<path fill="none" stroke="#757575" d="M406.85,-36.51C432.56,-38.27 464.98,-40.5 497.96,-42.76"/>
<polygon fill="#757575" stroke="#757575" points="497.46,-46.3 507.67,-43.49 497.94,-39.32 497.46,-46.3"/>
</g>
<!-- styles/global.css -->
<g id="node10" class="node">
<title>styles/global.css</title>
<path fill="none" stroke="#cfffac" d="M710.21,-23.75C710.21,-23.75 611.79,-23.75 611.79,-23.75 607.83,-23.75 603.88,-19.79 603.88,-15.83 603.88,-15.83 603.88,-7.92 603.88,-7.92 603.88,-3.96 607.83,0 611.79,0 611.79,0 710.21,0 710.21,0 714.17,0 718.12,-3.96 718.12,-7.92 718.12,-7.92 718.12,-15.83 718.12,-15.83 718.12,-19.79 714.17,-23.75 710.21,-23.75"/>
<text text-anchor="middle" x="661" y="-6.45" font-family="Arial" font-size="14.00" fill="#cfffac">styles/global.css</text>
</g>
<!-- pages/_app.tsx&#45;&gt;styles/global.css -->
<g id="edge8" class="edge">
<title>pages/_app.tsx&#45;&gt;styles/global.css</title>
<path fill="none" stroke="#757575" d="M406.85,-29.24C458.35,-25.71 536.76,-20.33 592.66,-16.49"/>
<polygon fill="#757575" stroke="#757575" points="592.79,-19.93 602.53,-15.75 592.31,-12.94 592.79,-19.93"/>
</g>
<!-- pages/api/health.ts -->
<g id="node11" class="node">
<title>pages/api/health.ts</title>
<path fill="none" stroke="#cfffac" d="M155.08,-128.75C155.08,-128.75 41.67,-128.75 41.67,-128.75 37.71,-128.75 33.75,-124.79 33.75,-120.83 33.75,-120.83 33.75,-112.92 33.75,-112.92 33.75,-108.96 37.71,-105 41.67,-105 41.67,-105 155.08,-105 155.08,-105 159.04,-105 163,-108.96 163,-112.92 163,-112.92 163,-120.83 163,-120.83 163,-124.79 159.04,-128.75 155.08,-128.75"/>
<text text-anchor="middle" x="98.38" y="-111.45" font-family="Arial" font-size="14.00" fill="#cfffac">pages/api/health.ts</text>
</g>
<!-- pages/index.tsx -->
<g id="node12" class="node">
<title>pages/index.tsx</title>
<path fill="none" stroke="#c6c5fe" d="M399.83,-107.75C399.83,-107.75 305.92,-107.75 305.92,-107.75 301.96,-107.75 298,-103.79 298,-99.83 298,-99.83 298,-91.92 298,-91.92 298,-87.96 301.96,-84 305.92,-84 305.92,-84 399.83,-84 399.83,-84 403.79,-84 407.75,-87.96 407.75,-91.92 407.75,-91.92 407.75,-99.83 407.75,-99.83 407.75,-103.79 403.79,-107.75 399.83,-107.75"/>
<text text-anchor="middle" x="352.88" y="-90.45" font-family="Arial" font-size="14.00" fill="#c6c5fe">pages/index.tsx</text>
</g>
<!-- pages/index.tsx&#45;&gt;components/Button/Button.tsx -->
<g id="edge9" class="edge">
<title>pages/index.tsx&#45;&gt;components/Button/Button.tsx</title>
<path fill="none" stroke="#757575" d="M407.9,-103.29C449.72,-109.03 508.84,-117.14 559.31,-124.06"/>
<polygon fill="#757575" stroke="#757575" points="558.56,-127.63 568.94,-125.52 559.51,-120.69 558.56,-127.63"/>
</g>
<!-- pages/index.tsx&#45;&gt;components/ThemeProvider/useTheme.ts -->
<g id="edge10" class="edge">
<title>pages/index.tsx&#45;&gt;components/ThemeProvider/useTheme.ts</title>
<path fill="none" stroke="#757575" d="M407.9,-95.88C437.94,-95.88 476.91,-95.88 515.19,-95.88"/>
<polygon fill="#757575" stroke="#757575" points="514.96,-99.38 524.96,-95.88 514.96,-92.38 514.96,-99.38"/>
</g>
<!-- styles/breakpoints.css -->
<g id="node13" class="node">
<title>styles/breakpoints.css</title>
<path fill="none" stroke="#cfffac" d="M164.46,-170.75C164.46,-170.75 32.29,-170.75 32.29,-170.75 28.33,-170.75 24.38,-166.79 24.38,-162.83 24.38,-162.83 24.38,-154.92 24.38,-154.92 24.38,-150.96 28.33,-147 32.29,-147 32.29,-147 164.46,-147 164.46,-147 168.42,-147 172.38,-150.96 172.38,-154.92 172.38,-154.92 172.38,-162.83 172.38,-162.83 172.38,-166.79 168.42,-170.75 164.46,-170.75"/>
<text text-anchor="middle" x="98.38" y="-153.45" font-family="Arial" font-size="14.00" fill="#cfffac">styles/breakpoints.css</text>
</g>
<!-- styles/variables.css -->
<g id="node14" class="node">
<title>styles/variables.css</title>
<path fill="none" stroke="#cfffac" d="M156.58,-212.75C156.58,-212.75 40.17,-212.75 40.17,-212.75 36.21,-212.75 32.25,-208.79 32.25,-204.83 32.25,-204.83 32.25,-196.92 32.25,-196.92 32.25,-192.96 36.21,-189 40.17,-189 40.17,-189 156.58,-189 156.58,-189 160.54,-189 164.5,-192.96 164.5,-196.92 164.5,-196.92 164.5,-204.83 164.5,-204.83 164.5,-208.79 160.54,-212.75 156.58,-212.75"/>
<text text-anchor="middle" x="98.38" y="-195.45" font-family="Arial" font-size="14.00" fill="#cfffac">styles/variables.css</text>
</g>
</g>
</svg>
