<svg width="32" height="32" viewBox="0 0 32 32" fill="none" xmlns="http://www.w3.org/2000/svg">
<g id="24 / Action / Security Check">
<path id="Union" fill-rule="evenodd" clip-rule="evenodd" d="M7.3335 11.9033V6.33882C9.97487 6.8834 12.9143 7.18369 16.0002 7.18369C19.0861 7.18369 22.0255 6.88341 24.6668 6.33885V11.8737L24.6666 11.9034V11.9038C24.6666 18.6769 20.8684 24.141 16.0001 25.9227C11.1318 24.141 7.3335 18.6769 7.3335 11.9038V11.9033ZM6.18929 4.02205C5.75935 3.91131 5.3335 4.2314 5.3335 4.67536V11.9033V11.9038C5.3335 19.5812 9.77164 26.0451 15.8081 27.9705C15.9329 28.0103 16.0672 28.0103 16.192 27.9705C22.2285 26.0451 26.6666 19.5812 26.6666 11.9038V11.9034L26.6667 11.9033L26.6668 11.9032V4.6754C26.6668 4.23143 26.241 3.91135 25.811 4.02209C22.9487 4.75932 19.591 5.18369 16.0002 5.18369C12.4094 5.18369 9.05163 4.7593 6.18929 4.02205ZM16.0622 18.4107L22.0016 13.0774L20.6654 11.5893L15.3941 16.3227L12.6683 13.875L11.332 15.3631L14.726 18.4107C15.106 18.752 15.6822 18.752 16.0622 18.4107Z" fill="#9772F7"/>
</g>
</svg>
