<svg width="32" height="32" viewBox="0 0 32 32" fill="none" xmlns="http://www.w3.org/2000/svg">
<g id="eslint-icon 1" clip-path="url(#clip0_8_49197)">
<path id="Vector" d="M10.1807 19.475V12.7502L15.9999 9.39032L21.8197 12.7502V19.471L15.9994 22.8262L10.1807 19.475Z" stroke="#9772F7" stroke-opacity="0.5" stroke-width="1.5"/>
<g id="Vector_2">
<mask id="path-2-inside-1_8_49197" fill="white">
<path d="M31.8021 15.3722L24.5401 2.7392C24.2766 2.2822 23.7901 1.9502 23.2621 1.9502H8.73859C8.21109 1.9502 7.72359 2.2872 7.46009 2.7437L0.198088 15.3502C0.0682843 15.577 0 15.8338 0 16.0952C0 16.3565 0.0682843 16.6134 0.198088 16.8402L7.46009 29.3652C7.72409 29.8222 8.21109 30.0552 8.73859 30.0552H23.2621C23.7896 30.0552 24.2771 29.8287 24.5406 29.3717L31.8021 16.8217C31.9317 16.6022 32 16.352 32 16.0972C32 15.8423 31.9317 15.5922 31.8021 15.3727M25.7891 21.4477C25.7891 21.6327 25.6771 21.8052 25.5161 21.8977L16.2661 27.2342C16.1865 27.28 16.0962 27.3041 16.0043 27.3041C15.9125 27.3041 15.8222 27.28 15.7426 27.2342L6.48609 21.8977C6.32509 21.8047 6.21259 21.6327 6.21259 21.4477V10.7737C6.21486 10.6815 6.24114 10.5915 6.28885 10.5126C6.33655 10.4337 6.40402 10.3686 6.48459 10.3237L15.7346 4.9872C15.8142 4.94149 15.9043 4.91743 15.9961 4.91743C16.0879 4.91743 16.178 4.94149 16.2576 4.9872L25.5151 10.3232C25.6761 10.4162 25.7901 10.5882 25.7901 10.7732L25.7891 21.4477Z"/>
</mask>
<path d="M24.5401 2.7392L25.8405 1.99164L25.8396 1.98994L24.5401 2.7392ZM7.46009 2.7437L6.16097 1.99382L6.16032 1.99496L7.46009 2.7437ZM0.198088 15.3502L-1.10169 14.6015L-1.10382 14.6052L0.198088 15.3502ZM0 16.0952H-1.5H0ZM0.198088 16.8402L-1.10385 17.5852L-1.09957 17.5926L0.198088 16.8402ZM7.46009 29.3652L8.75894 28.6149L8.75775 28.6128L7.46009 29.3652ZM24.5406 29.3717L23.2423 28.6205L23.2411 28.6224L24.5406 29.3717ZM31.8021 16.8217L30.5104 16.059L30.5038 16.0705L31.8021 16.8217ZM25.7891 21.4477L24.2891 21.4476V21.4477H25.7891ZM25.5161 21.8977L24.7688 20.5971L24.7665 20.5984L25.5161 21.8977ZM16.2661 27.2342L17.0139 28.5345L17.0157 28.5335L16.2661 27.2342ZM15.7426 27.2342L14.9934 28.5337L14.9947 28.5345L15.7426 27.2342ZM6.48609 21.8977L5.73581 23.1966L5.7369 23.1972L6.48609 21.8977ZM6.21259 10.7737L4.71304 10.7368L4.71259 10.7552V10.7737H6.21259ZM6.48459 10.3237L7.21432 11.6342L7.22429 11.6287L7.23417 11.623L6.48459 10.3237ZM15.7346 4.9872L14.9874 3.68651L14.985 3.68791L15.7346 4.9872ZM15.9961 4.91743V3.41743V4.91743ZM16.2576 4.9872L17.0067 3.68762L17.0047 3.68651L16.2576 4.9872ZM25.5151 10.3232L26.2654 9.02432L26.2642 9.02362L25.5151 10.3232ZM25.7901 10.7732L27.2901 10.7733V10.7732H25.7901ZM33.1025 14.6246L25.8405 1.99164L23.2396 3.48675L30.5016 16.1197L33.1025 14.6246ZM25.8396 1.98994C25.3585 1.15569 24.4199 0.450195 23.2621 0.450195V3.4502C23.208 3.4502 23.1862 3.43325 23.1959 3.43942C23.2002 3.44215 23.2082 3.44811 23.2177 3.45799C23.2271 3.46787 23.2349 3.47858 23.2406 3.48845L25.8396 1.98994ZM23.2621 0.450195H8.73859V3.4502H23.2621V0.450195ZM8.73859 0.450195C7.57366 0.450195 6.63749 1.16829 6.16098 1.99382L8.7592 3.49357C8.76528 3.48303 8.77387 3.47127 8.78434 3.46025C8.79481 3.44922 8.80389 3.44238 8.80905 3.43908C8.82095 3.43146 8.79785 3.4502 8.73859 3.4502V0.450195ZM6.16032 1.99496L-1.10168 14.6015L1.49786 16.0989L8.75986 3.49243L6.16032 1.99496ZM-1.10382 14.6052C-1.36343 15.0589 -1.5 15.5725 -1.5 16.0952H1.5V16.0952L-1.10382 14.6052ZM-1.5 16.0952C-1.5 16.6179 -1.36343 17.1315 -1.10382 17.5852L1.5 16.0952V16.0952H-1.5ZM-1.09957 17.5926L6.16243 30.1176L8.75775 28.6128L1.49575 16.0878L-1.09957 17.5926ZM6.16124 30.1155C6.73971 31.1169 7.7752 31.5552 8.73859 31.5552V28.5552C8.69335 28.5552 8.68176 28.5451 8.69548 28.5523C8.70279 28.5561 8.71465 28.5636 8.72789 28.5761C8.74145 28.589 8.752 28.6029 8.75894 28.6149L6.16124 30.1155ZM8.73859 31.5552H23.2621V28.5552H8.73859V31.5552ZM23.2621 31.5552C24.2102 31.5552 25.2556 31.1346 25.8401 30.121L23.2411 28.6224C23.2492 28.6085 23.2613 28.5926 23.2767 28.5781C23.2918 28.5639 23.3052 28.5556 23.3133 28.5514C23.328 28.5438 23.3142 28.5552 23.2621 28.5552V31.5552ZM25.8389 30.1229L33.1004 17.5729L30.5038 16.0705L23.2423 28.6205L25.8389 30.1229ZM33.0938 17.5843C33.3597 17.1339 33.5 16.6203 33.5 16.0972H30.5C30.5 16.0838 30.5036 16.0706 30.5104 16.0591L33.0938 17.5843ZM33.5 16.0972C33.5 15.5741 33.3597 15.0605 33.0938 14.6101L30.5104 16.1353C30.5036 16.1238 30.5 16.1106 30.5 16.0972H33.5ZM24.2891 21.4477C24.2891 21.0298 24.5242 20.7376 24.7688 20.5971L26.2633 23.1983C26.8299 22.8728 27.2891 22.2356 27.2891 21.4477H24.2891ZM24.7665 20.5984L15.5165 25.9349L17.0157 28.5335L26.2657 23.197L24.7665 20.5984ZM15.5182 25.9339C15.6661 25.8489 15.8337 25.8041 16.0043 25.8041V28.8041C16.3587 28.8041 16.7068 28.7111 17.0139 28.5345L15.5182 25.9339ZM16.0043 25.8041C16.1749 25.8041 16.3426 25.8489 16.4904 25.9339L14.9947 28.5345C15.3019 28.7111 15.65 28.8041 16.0043 28.8041V25.8041ZM16.4918 25.9347L7.23527 20.5982L5.7369 23.1972L14.9934 28.5337L16.4918 25.9347ZM7.23637 20.5988C7.47372 20.7359 7.71259 21.0252 7.71259 21.4477H4.71259C4.71259 22.2401 5.17646 22.8735 5.73581 23.1966L7.23637 20.5988ZM7.71259 21.4477V10.7737H4.71259V21.4477H7.71259ZM7.71213 10.8106C7.70798 10.9794 7.65987 11.1441 7.57256 11.2885L5.00513 9.73665C4.82242 10.0389 4.72174 10.3837 4.71304 10.7368L7.71213 10.8106ZM7.57256 11.2885C7.48526 11.433 7.36178 11.5521 7.21432 11.6342L5.75485 9.01316C5.44626 9.185 5.18784 9.43437 5.00513 9.73665L7.57256 11.2885ZM7.23417 11.623L16.4842 6.28648L14.985 3.68791L5.73501 9.02441L7.23417 11.623ZM16.4817 6.28788C16.334 6.37277 16.1665 6.41743 15.9961 6.41743V3.41743C15.6421 3.41743 15.2944 3.51021 14.9874 3.68651L16.4817 6.28788ZM15.9961 6.41743C15.8257 6.41743 15.6582 6.37276 15.5104 6.28788L17.0047 3.68651C16.6978 3.51021 16.35 3.41743 15.9961 3.41743V6.41743ZM15.5085 6.28677L24.766 11.6228L26.2642 9.02362L17.0067 3.68762L15.5085 6.28677ZM24.7648 11.6221C24.5348 11.4892 24.2901 11.2032 24.2901 10.7732H27.2901C27.2901 9.97319 26.8174 9.34318 26.2654 9.02432L24.7648 11.6221ZM24.2901 10.7731L24.2891 21.4476L27.2891 21.4478L27.2901 10.7733L24.2901 10.7731Z" fill="#9772F7" mask="url(#path-2-inside-1_8_49197)"/>
</g>
</g>
<defs>
<clipPath id="clip0_8_49197">
<rect width="32" height="32" fill="white"/>
</clipPath>
</defs>
</svg>
