<svg width="32" height="32" viewBox="0 0 32 32" fill="none" xmlns="http://www.w3.org/2000/svg">
<g id="nextjs-icon-svgrepo-com 1" clip-path="url(#clip0_8_49185)">
<g id="Group">
<path id="Vector" d="M15.024 0.755153L15.02 0.755543C15.0072 0.756698 14.9857 0.758748 14.9578 0.761407C14.861 0.770653 14.687 0.787265 14.5307 0.79972C10.2079 1.19058 6.14903 3.52643 3.57849 7.1193L3.57818 7.11973C2.14579 9.11882 1.2317 11.3829 0.886221 13.7801L0.886031 13.7814C0.764476 14.6143 0.75 14.836 0.75 16.0031C0.75 17.1703 0.764476 17.3919 0.88603 18.2249L0.886156 18.2258C1.71452 23.9489 5.79053 28.7627 11.319 30.5457L15.024 0.755153ZM15.024 0.755153C15.0239 0.755171 15.0242 0.755151 15.0253 0.755099C15.032 0.754758 15.0659 0.753042 15.14 0.751784C15.2157 0.750497 15.314 0.749914 15.4293 0.75001C15.6594 0.750202 15.9476 0.753081 16.2386 0.757734C16.839 0.767332 17.3852 0.783669 17.4995 0.794985C18.6744 0.927747 19.7118 1.14645 20.6798 1.46019L20.6808 1.46052C26.2094 3.24347 30.2855 8.05726 31.1138 13.7805L31.114 13.7814C31.2355 14.6143 31.25 14.836 31.25 16.0031C31.25 17.1703 31.2355 17.3919 31.114 18.2249L31.1139 18.2256C30.6968 21.1029 29.4544 23.8032 27.5244 26.0193L27.5237 26.02C26.7524 26.9079 25.8069 27.7663 24.8812 28.4325M15.024 0.755153L24.8812 28.4325M24.8812 28.4325L22.7663 25.2291L22.7661 25.2289C21.371 23.1179 18.5309 18.8176 16.4541 15.6684C15.4152 14.0932 14.4615 12.6515 13.7615 11.5971C13.4115 11.07 13.1246 10.6391 12.922 10.3365C12.8208 10.1854 12.7399 10.0652 12.6824 9.98061C12.6539 9.9386 12.6298 9.90353 12.6115 9.8772C12.6025 9.86436 12.5931 9.85095 12.5843 9.83881C12.58 9.83292 12.5738 9.82446 12.5667 9.81517L12.5663 9.81472C12.5634 9.8108 12.5458 9.7877 12.5216 9.76115C12.4612 9.69512 12.3731 9.60607 12.2516 9.52778C12.1235 9.44532 11.9908 9.39518 11.8564 9.3646C11.631 9.31328 11.3542 9.3107 11.0577 9.3107C10.8016 9.3107 10.6113 9.31144 10.4703 9.32519C10.269 9.34483 10.1379 9.39277 10.0094 9.45541L9.99509 9.46241L9.98105 9.47002C9.83805 9.54747 9.64515 9.69215 9.51641 9.85765L9.42269 9.97554L9.26017 10.18L9.25978 10.4411L9.25039 16.7151L9.25039 16.7155L9.24413 22.9863L9.24397 23.1531L9.31452 23.3043L9.38021 23.445L9.38666 23.4588L9.39368 23.4724C9.49957 23.6771 9.65807 23.8567 9.86816 23.9898L9.86947 23.9906L10.0134 24.0813L10.1966 24.1968H10.4133H10.9544C10.9758 24.1968 10.9968 24.1968 11.0175 24.1969C11.3888 24.1973 11.671 24.1976 11.9498 24.0582L11.9562 24.0551L11.9624 24.0518C12.0691 23.9959 12.1917 23.9197 12.3084 23.7998C12.4208 23.6843 12.4957 23.5608 12.5522 23.4544L12.5526 23.4537C12.6383 23.2919 12.6594 23.1391 12.6704 23.0036C12.6811 22.8727 12.6872 22.6753 12.6917 22.3665C12.7007 21.7386 12.7039 20.5603 12.7086 18.31C12.7106 17.478 12.7132 16.6949 12.7164 16.0164C13.247 16.7974 13.8972 17.7567 14.5967 18.7909L17.8028 23.5352L17.8119 23.5486L17.8215 23.5616L20.3802 27.0175C21.0843 27.9688 21.7301 28.8382 22.2031 29.4725C22.3027 29.606 22.3947 29.7293 22.4781 29.8408C20.9224 30.5706 19.3238 31.0074 17.451 31.2146C17.2575 31.2358 16.6565 31.25 16 31.25C15.3443 31.25 14.7439 31.2358 14.5497 31.2147L24.8812 28.4325ZM22.5932 15.7948V15.7948C22.5963 13.8353 22.5963 12.4189 22.5924 11.4818C22.5905 11.0137 22.5875 10.6623 22.5834 10.4216C22.5814 10.302 22.579 10.2051 22.5761 10.1333C22.5747 10.098 22.5729 10.0626 22.5704 10.0308C22.5692 10.0153 22.5673 9.99421 22.5643 9.97124L22.5642 9.96991C22.5626 9.95719 22.556 9.90559 22.5382 9.84442C22.4338 9.48671 22.17 9.18489 21.8495 9.02056C21.7 8.94105 21.5559 8.90256 21.3839 8.88632C21.25 8.87368 21.0744 8.87284 20.8547 8.87284C20.6253 8.87284 20.4431 8.87337 20.3038 8.88864C20.1011 8.91086 19.9687 8.96468 19.8466 9.02722L19.8389 9.03116L19.8313 9.03528C19.4955 9.21715 19.2605 9.52297 19.1577 9.88278L19.1553 9.89112L19.1531 9.89951C19.1387 9.95456 19.1334 10.0017 19.1321 10.0131L19.1319 10.0142C19.1297 10.0336 19.1283 10.0514 19.1273 10.0646C19.1254 10.0916 19.1239 10.1216 19.1227 10.1512C19.1202 10.2115 19.1181 10.2918 19.1161 10.3889C19.1122 10.5842 19.1089 10.8628 19.1061 11.2192C19.1006 11.9327 19.0975 12.967 19.0975 14.2892V18.377V18.6006L19.2199 18.7877L20.2141 20.3068L20.2147 20.3077L21.2057 21.8268L22.5796 23.9329L22.5838 21.4183L22.5932 15.7948ZM14.5496 31.2147C13.3485 31.0819 12.3039 30.863 11.3192 30.5457L14.5496 31.2147Z" stroke="#9772F7" stroke-width="1.5"/>
</g>
</g>
<defs>
<clipPath id="clip0_8_49185">
<rect width="32" height="32" fill="white"/>
</clipPath>
</defs>
</svg>
