<svg width="604" height="602" viewBox="0 0 604 602" fill="none" xmlns="http://www.w3.org/2000/svg">
<path d="M112.579 251.558C113.397 252.174 114.822 252.576 113.397 253.794C112.377 255.214 111.154 256.433 110.341 258.06C109.53 259.487 108.918 259.887 107.696 258.877C109.226 256.374 110.852 253.93 112.57 251.551L112.579 251.558ZM521.753 464.516C521.753 465.118 521.956 465.518 521.956 466.136C522.365 465.325 522.364 464.916 522.573 464.516H521.753ZM480.229 545.582L444.799 349.706C444.196 349.512 443.385 349.112 441.954 348.703C442.363 349.512 442.571 350.121 442.774 350.73C443.779 350.53 444.196 350.53 444.599 350.33C444.599 350.13 444.599 349.928 444.807 349.715L480.237 545.606L480.229 545.582ZM443.585 305.615C443.385 306.216 443.385 306.831 443.385 307.44C443.385 306.825 443.385 306.209 443.6 305.607L443.585 305.615ZM443.785 309.67C443.585 309.67 443.585 309.67 443.385 309.454V309.652C443.6 309.854 443.6 309.854 443.803 309.652L443.785 309.67ZM443.385 311.288V309.863C442.789 310.061 442.176 310.061 441.358 310.27C442.378 310.657 443.4 310.872 443.4 311.273L443.385 311.288Z" fill="#9772F7"/>
<path d="M601.955 261.923C601.553 253.996 601.353 246.07 600.533 238.148C599.11 227.377 597.685 216.403 595.243 205.84C593.409 197.103 590.368 188.767 587.305 180.439C583.436 170.685 579.57 160.73 574.68 151.385C566.743 136.346 556.363 122.929 546.794 108.911C540.466 99.9662 532.327 92.6555 526.217 83.5111C522.758 78.2298 517.668 73.7643 512.578 69.7077C504.434 63.1929 495.885 57.2938 487.337 51.6124C480.824 47.138 474.312 42.8747 467.379 39.0094C461.887 35.9488 455.986 33.5126 450.284 30.8676C443.77 27.8224 437.459 24.1594 430.133 22.739C428.291 22.3542 426.668 21.7386 424.834 21.1207C420.153 19.5003 415.675 17.6732 410.987 16.2462C403.87 14.0101 396.946 11.3739 389.616 9.54018C382.514 7.71086 375.179 6.49937 367.846 5.47478C359.707 4.27868 351.369 3.85653 343.216 3.0606C337.924 2.44497 332.634 1.84252 327.544 1.64244C319.807 1.24228 311.87 1.24228 304.134 1.04C300.267 0.833317 296.197 0.424358 292.33 0.633235C286.428 0.831118 280.527 1.44236 274.617 2.25148C268.922 2.86712 263.221 3.87192 257.731 4.69644C251.023 5.50556 244.308 5.91452 237.586 6.73244C231.274 7.54815 224.759 8.76844 218.455 9.78644C216.213 10.1932 213.97 11.0045 211.727 11.4047C206.853 12.4227 201.763 12.8316 196.873 14.4587C188.131 17.1103 179.367 20.1643 170.818 23.403C162.874 26.6571 155.139 30.1112 147.613 34.1766C139.876 38.4311 132.543 43.5057 125.217 48.3957C118.287 53.0679 111.372 57.9402 104.642 63.2237C98.1424 68.3115 92.0322 73.9973 86.1221 79.6854C82.8724 82.9241 80.2208 86.796 77.1646 90.4502C72.0812 96.3493 66.9912 102.033 62.1035 108.132C58.0491 113.222 54.3684 118.497 50.4987 123.787C43.5926 133.116 37.6891 143.078 32.1967 153.043C29.9541 157.106 27.9202 161.169 25.8864 165.224C22.8302 171.316 19.5718 177.215 16.7267 183.517C14.6819 187.789 13.0592 192.461 11.8367 197.133C8.96908 207.134 6.18908 217.159 3.49705 227.207C1.05429 236.152 0.440856 245.498 0.249569 254.643C0.0406919 262.771 0.852007 270.698 1.66553 278.824C1.8744 280.86 0.658528 283.298 3.08809 284.917C2.27457 287.153 2.88582 288.386 4.0929 288.773C2.68573 291.009 4.71294 292.443 3.90821 294.479C3.69934 294.879 4.52605 295.688 4.91302 296.299C4.91302 296.915 4.71954 297.724 4.91302 298.333C5.13069 300.162 5.942 301.99 5.942 304.026C5.942 305.444 7.1579 307.071 7.56686 308.498C7.76914 309.098 7.56685 310.116 7.15789 310.525C5.93541 311.943 6.1355 313.163 7.96922 313.979C8.99821 316.618 8.58704 317.836 8.38696 319.069C8.78932 320.89 8.17808 321.499 8.38696 321.905C10.0118 325.16 10.6296 328.816 10.8231 332.47C10.8231 333.288 11.2343 334.106 11.6432 335.115C11.8455 335.115 11.6432 338.972 11.6432 338.972C12.6502 338.369 13.477 338.169 14.4906 337.762C15.1084 340.399 15.713 342.85 16.5244 345.086C17.5468 346.707 17.5468 347.507 17.1444 347.707C17.9579 351.364 18.3581 354.818 19.774 358.272C19.774 354.418 19.3871 350.561 18.767 346.898C21.6144 347.916 24.0593 348.928 25.693 348.928C25.8996 348.31 26.1019 347.507 26.3086 347.098C25.0883 345.889 24.0659 344.062 22.8456 342.841C23.2546 344.462 22.8456 345.08 22.8456 345.695C22.0321 345.278 21.0119 344.871 19.9983 344.462C20.8118 343.459 21.6232 342.435 22.8456 341.223C22.8456 339.387 21.8386 337.754 18.9759 337.96C20.1984 337.56 21.4209 336.96 22.8456 336.542C25.0883 335.333 22.6433 333.095 22.6433 330.25C22.8456 326.804 20.8096 323.348 20.1984 319.687C19.1782 314.003 19.3871 305.468 18.7758 299.775C17.5534 298.758 16.5332 301.396 16.3309 301.603C16.9509 306.477 17.5534 311.349 17.9579 316.231C16.742 312.167 15.9219 307.695 14.9083 302.814C14.6994 304.241 14.4972 304.85 14.4972 305.668C13.4924 306.671 14.2971 307.904 14.9083 309.322C13.4858 308.707 11.8521 308.922 11.8521 308.922V314.612C9.82492 312.576 9.22247 310.958 8.19348 309.522C7.79112 307.904 7.57564 306.284 7.18867 304.663C7.57564 303.639 7.18867 303.03 7.18867 302.429C6.94929 300.804 6.74257 299.173 6.56864 297.539C6.77092 297.339 6.36855 294.301 6.36855 294.301C7.99339 294.494 9.02019 294.688 10.0338 294.688C7.99999 292.065 9.41596 290.431 10.2427 288.804C10.6538 287.986 12.0764 287.801 12.4854 286.968C14.1124 283.923 16.764 281.493 16.764 277.624C16.764 275.794 17.3841 273.767 17.5775 271.931C17.9865 268.477 18.3911 265.023 18.5823 261.569C19.0001 257.094 18.5823 252.622 19.6113 248.359C21.2516 241.264 23.2854 234.146 25.5214 227.031C27.1463 221.941 28.9866 217.082 31.0138 211.992C34.07 204.066 36.9239 196.14 40.7915 188.629C46.2838 177.649 52.5963 167.084 58.7065 156.319C62.5762 149.611 66.6438 143.311 70.9312 136.81C74.9901 130.511 79.0511 124.009 83.7475 118.11C90.2689 109.783 97.3926 102.057 105.33 95.1467C113.476 87.836 121.211 80.3186 129.96 73.6104C141.338 64.8473 153.456 57.091 166.179 50.4295C176.568 44.9547 187.35 40.6672 198.142 36.604C205.065 33.9656 212.591 32.7497 219.724 30.5136C227.861 27.8686 236.008 26.6571 244.556 26.4482C250.049 26.2415 255.347 25.6325 260.84 25.0234C265.728 24.6365 270.609 24.2209 275.908 23.6119C275.29 24.421 275.087 24.83 274.887 25.2301C272.658 28.4842 270.215 31.7383 267.97 34.9858C266.139 37.6308 264.103 40.4759 262.269 43.1122C259.006 47.393 255.541 51.6563 252.491 56.1285C247.812 62.8367 243.534 69.7473 238.646 76.4467C233.772 82.9483 228.473 89.0475 223.383 95.3401C216.668 104.084 210.355 113.022 203.641 121.758C197.53 130.086 191.033 138.028 185.123 146.357C179.831 153.659 175.143 161.394 170.053 168.896C162.527 180.076 154.992 191.043 147.466 202.223C141.557 210.734 135.585 219.201 129.551 227.623C129.14 228.239 128.528 228.425 127.924 228.832C126.301 231.471 126.301 232.9 125.681 234.116C124.059 237.163 122.434 240.206 120.591 243.06C119.571 244.68 118.148 246.099 116.926 247.726C116.724 245.289 120.173 244.071 118.551 241.02C117.544 242.653 116.515 244.071 115.501 245.698L113.058 250.558C113.87 251.173 115.301 251.582 113.87 252.791C113.252 253.818 112.647 255.03 112.036 256.054C113.058 255.439 113.661 254.836 114.279 254.018C114.279 256.254 113.058 258.075 112.036 259.902C111.222 261.522 109.189 262.756 107.766 263.965C107.968 264.174 109.391 264.783 109.6 264.983C111.434 264.368 112.045 263.365 112.254 263.965C112.872 263.156 113.476 262.547 113.676 261.938C114.481 259.902 115.703 258.284 117.737 257.466C118.557 257.057 119.162 256.448 119.771 255.845C125.883 249.537 132.194 243.445 137.688 236.739C146.243 226.367 153.981 215.609 162.131 205.044C165.583 200.572 169.66 196.1 173.318 191.83C173.921 196.502 173.518 200.966 173.318 205.247C172.698 212.757 172.296 220.284 171.693 227.994C171.485 231.04 171.693 234.085 171.485 237.139C171.485 237.948 170.867 238.557 170.867 239.375C170.867 241.402 171.485 243.64 171.485 245.674C170.867 253.194 170.047 260.504 169.435 268.022C169.226 269.64 170.038 271.276 170.44 272.703C169.435 283.668 171.678 295.257 169.838 306.84C171.26 304.604 171.669 303.183 171.669 301.765C171.863 300.547 171.669 299.329 171.669 297.911V295.875C171.863 292.212 172.676 288.355 172.274 284.692C171.863 280.629 171.863 276.775 172.683 272.912C173.094 271.291 172.483 269.255 173.503 267.219V270.267C173.303 281.832 173.712 293.421 172.087 305.006C171.878 306.022 172.707 307.858 170.464 307.649C168.622 311.303 170.867 313.948 168.837 315.978C168.42 316.387 169.226 318.214 169.435 319.43C168.615 321.877 168.615 321.877 169.838 322.077C170.038 326.549 170.456 330.606 170.651 334.878C173.899 327.167 172.274 319.223 173.712 311.297C173.914 314.551 174.123 317.805 173.914 321.244C173.914 326.543 173.712 331.615 173.512 336.898C173.512 337.914 173.303 338.932 173.101 339.95C172.483 342.804 172.289 345.643 171.269 348.279C170.456 350.315 170.867 353.369 170.867 355.798V363.531C171.678 366.985 170.658 368.813 171.269 370.842C170.649 372.887 170.456 373.494 170.649 374.103L171.269 377.15C175.345 376.741 173.512 379.795 175.137 381.413C173.914 383.049 174.323 383.649 174.323 384.474C174.323 386.303 174.13 387.93 173.921 389.757C173.921 394.43 173.721 399.102 173.721 403.574C173.721 404.192 173.921 404.786 173.921 405.395C173.921 405.812 173.721 411.1 173.721 411.1C174.13 411.703 173.721 412.312 173.101 412.921C172.907 412.921 172.296 387.112 172.296 387.112H169.24C168.839 399.295 169.86 410.269 167.617 421.658C165.172 421.85 164.367 422.259 161.707 422.259C155.397 422.259 149.082 422.259 142.769 422.459C135.235 422.459 127.917 422.661 120.376 422.661C116.726 422.661 112.856 423.077 109.189 423.077C104.301 423.077 99.211 422.461 94.3364 422.461C86.7949 422.461 79.4688 423.077 71.9361 423.277C66.4437 423.477 60.9513 423.477 55.459 423.686C51.7827 423.879 48.1087 424.07 44.4589 424.488C42.8318 424.686 41.4027 425.297 39.3689 425.906C38.7489 425.906 37.3329 425.706 36.1192 425.906C34.07 426.315 32.2495 427.525 30.2003 427.942C27.1441 428.558 26.3328 429.36 26.7351 432.414V434.442C26.5351 434.844 31.2205 433.826 31.2205 433.826C30.8028 433.826 30.6048 435.044 29.9848 436.062C31.625 435.446 32.6387 435.044 33.6589 434.644C36.715 436.069 39.3601 435.26 41.7963 435.875C49.7336 437.898 57.871 438.729 66.0106 439.525C71.3094 439.932 76.3994 440.141 81.6895 440.334C89.2157 440.743 96.7506 441.152 104.277 441.152C110.589 441.152 116.699 440.534 122.999 440.534C131.739 440.534 140.511 440.934 149.26 441.15C151.094 441.15 153.13 440.934 155.164 440.934H170.016C183.259 440.534 196.488 440.319 209.722 439.932C217.264 439.716 224.999 439.316 232.527 439.107L255.732 438.492C264.692 438.289 273.649 438.289 282.405 438.105C289.12 438.105 295.634 437.874 302.365 437.68C309.884 437.482 317.619 436.871 325.152 436.471C329.23 436.262 333.307 435.855 337.377 435.453C342.264 435.051 347.354 434.45 352.227 434.244C359.562 433.826 367.094 433.626 374.429 433.217C383.587 432.615 392.747 431.805 402.106 431.597C410.662 431.196 419.41 431.399 427.968 431.196C435.5 430.987 443.035 430.581 450.77 430.378L463.611 429.763C463.611 429.763 472.153 429.561 476.429 429.145C483.755 428.745 491.081 427.936 498.416 427.733C503.086 427.525 507.776 427.733 512.455 427.525C519.981 427.327 527.718 426.909 535.251 426.909C538.092 426.909 541.146 427.327 544.813 427.525C543.188 428.954 542.168 429.763 540.944 430.779C541.757 430.981 542.571 431.396 543.391 431.797C542.168 432.608 541.148 432.799 540.141 432.799C539.723 433.826 539.314 434.235 538.903 436.271H542.571C541.146 436.271 539.923 438.096 538.503 439.316C536.876 438.898 535.447 439.316 534.633 441.552C536.056 442.355 535.856 442.964 535.653 443.788C533.211 444.591 531.377 445.407 532.406 448.045C531.577 448.445 530.563 448.854 529.543 449.463C528.538 451.084 526.696 451.493 527.098 453.729C527.918 453.92 528.723 454.344 529.341 454.529C528.321 454.938 527.307 455.547 526.285 455.949C522.628 458.185 524.26 459.203 525.071 460.221C524.453 460.628 523.851 461.031 523.24 461.239C523.642 463.064 524.244 463.475 524.453 463.475C523.64 464.076 522.62 464.894 521.397 465.912C520.779 467.739 519.968 468.55 519.154 469.766C518.341 470.986 517.932 472.62 516.912 473.831C512.642 478.51 509.586 484.009 504.093 487.657C502.051 489.084 500.224 490.911 498.392 492.747C494.725 496.192 491.468 500.055 487.601 503.309C482.517 507.575 477.234 511.429 471.726 515.292C465.02 519.967 458.305 524.639 451.584 529.111C447.916 531.541 443.849 533.368 439.979 535.604C436.112 537.84 432.446 539.876 428.579 542.106C426.134 543.724 423.889 545.96 421.244 547.193C414.529 550.047 407.399 552.477 400.482 555.122C393.754 557.974 388.879 560.403 383.789 562.23C379.108 563.851 374.22 565.084 369.339 566.087C367.712 566.505 365.874 566.087 364.04 566.293C360.575 566.909 357.114 567.729 353.651 568.129C344.694 569.347 335.734 570.165 326.783 571.383C321.484 571.999 316.397 573.004 311.107 573.62C307.446 573.82 303.578 573.419 299.911 573.419C297.266 573.419 294.418 574.035 291.767 573.628C287.495 573.013 283.218 572.008 278.94 571.19C277.935 570.992 276.495 570.574 275.692 570.992C274.065 571.808 272.627 570.59 270.996 570.992C269.991 571.199 268.968 570.374 267.948 570.374C267.128 570.181 266.106 570.59 265.085 570.374C262.843 569.772 260.816 568.963 258.357 569.163C255.934 569.363 253.483 568.145 250.851 567.545C247.179 566.727 243.736 565.924 240.053 565.1C238.637 564.691 237.424 564.082 235.992 563.272C230.693 563.272 227.228 563.07 223.97 561.843C221.125 560.843 218.48 559.416 215.423 559.825C214.619 560.025 214.007 559.625 213.181 559.625C212.561 558.807 211.965 557.18 211.362 557.18C207.295 557.389 204.848 553.941 201.382 552.914C199.558 552.299 198.133 550.271 196.301 549.66C191.816 547.835 188.162 543.979 183.072 543.37C181.449 543.161 179.824 542.352 177.982 541.749C178.602 542.552 178.989 543.161 179.609 543.772C173.705 540.916 168.213 537.68 162.712 534.626C161.907 534.425 161.298 533.623 160.687 533.205L155.194 529.551C152.138 530.167 150.916 528.935 150.089 528.533C144.597 524.679 138.291 522.234 132.992 517.968C130.749 516.134 128.12 514.916 126.495 512.678C123.632 509.226 120.173 506.788 116.306 504.761C113.258 503.14 110.413 501.304 107.566 499.477C106.135 498.459 104.703 497.241 104.703 495.005C104.703 493.578 104.099 492.153 102.267 492.969C101.454 491.751 100.64 490.33 99.6199 489.924C97.1772 488.921 95.5523 487.07 93.7186 485.452C91.8849 483.831 90.4689 481.595 88.2262 480.786C84.1498 479.168 81.7049 475.711 79.2687 472.866C73.5587 466.16 68.4687 458.832 63.1786 451.737C62.7675 451.121 61.9561 450.712 61.3449 450.103C62.1584 452.339 63.1786 454.168 64.1922 456.193C62.165 455.386 60.7403 453.96 59.52 452.541C59.3111 452.748 73.5587 476.111 73.5587 476.111C74.7966 477.941 75.8014 479.777 77.0261 481.604C73.9699 481.804 71.9361 480.177 70.9137 478.35C69.0887 475.111 67.0462 473.075 62.9764 473.491C62.574 472.057 62.165 470.43 61.9715 469.018C61.1448 469.018 60.5424 469.018 59.1088 468.812C61.9715 473.284 64.4077 477.138 67.0528 481.61C66.026 480.995 65.4301 480.592 65.0035 480.392C68.6622 484.249 71.3094 489.13 75.9883 491.575C77.0107 496.238 82.3008 498.474 83.5232 502.947C82.5184 502.74 81.6829 502.54 80.6605 502.331C79.0357 500.304 77.202 498.274 75.377 496.038C75.7794 497.456 76.384 498.677 77.202 499.693C79.6469 502.74 81.8918 505.785 84.7369 508.43C85.7593 509.464 87.1819 509.873 87.1819 511.7C88.8067 512.509 89.4245 512.702 90.0292 512.702C90.4469 513.936 89.8357 515.763 92.2719 515.354C93.8967 518.401 95.5216 518.401 97.7642 517.39C100.418 520.035 101.849 520.244 103.674 518.623C103.674 519.626 103.874 520.646 103.874 521.462C104.688 521.053 104.494 520.444 104.494 519.426C105.499 520.235 106.119 520.644 106.522 521.046C108.555 523.898 110.389 526.536 113.236 528.773C117.104 532.027 120.569 535.481 124.219 538.526C131.352 544.425 139.304 549.306 147.233 553.772C157.01 559.262 166.379 565.152 176.35 570.427C188.355 576.735 201.182 581.007 214.41 584.052C219.298 585.07 223.979 586.082 228.877 587.291C233.13 588.525 237.415 590.354 241.694 591.363C248.206 592.79 254.921 594.008 261.433 595.22C262.849 595.426 264.296 595.635 265.921 595.835C267.739 596.244 269.975 595.426 270.384 596.044C271.405 597.662 272.218 596.847 273.441 596.644C274.863 596.235 276.497 596.235 278.119 596.235C283.821 596.438 289.313 597.656 295.014 597.253C296.252 597.253 298.077 596.229 299.099 598.256C300.924 597.447 301.947 597.447 302.758 597.253C302.976 599.074 302.758 599.074 302.371 599.276C301.953 599.474 301.342 599.683 300.531 600.292C307.857 601.712 314.778 601.912 320.875 600.292C331.473 601.101 340.631 599.883 349.388 596.838C350.202 597.856 350.811 599.274 352.033 597.247C352.436 596.631 353.458 596.422 354.276 596.22C356.103 595.813 358.346 595.002 359.971 595.604C361.811 596.22 362.422 594.602 363.84 594.602C366.292 594.602 368.526 594.393 370.771 593.986C371.991 593.784 373.213 593.175 374.638 592.766C373.244 592.076 371.708 591.725 370.153 591.741C372.439 590.613 374.749 589.533 377.081 588.503C376.672 589.103 376.263 589.914 375.458 589.914H378.294C377.679 589.914 376.865 591.739 375.854 592.959C383.169 591.132 389.884 589.505 396.405 587.869C394.163 583.613 398.841 585.04 400.473 582.595C398.439 583.212 396.405 583.815 394.363 584.215C401.289 580.768 408.412 577.722 415.327 574.677C414.32 575.895 413.085 576.502 411.266 577.529C412.489 577.722 413.3 577.722 413.911 577.916C417.161 578.94 416.356 575.893 417.37 574.059C421.237 574.059 422.862 573.457 424.694 572.841C426.73 572.226 428.763 571.623 430.806 570.814C434.054 569.394 437.11 567.575 440.366 565.955C440.986 565.739 441.993 565.955 442.811 565.955C445.054 564.521 445.858 563.303 446.47 563.503C449.332 563.912 451.344 562.888 452.164 560.265C453.587 559.238 454.609 558.429 455.621 557.813C460.093 555.375 464.363 552.939 468.85 550.502C470.473 550.502 471.293 550.502 471.695 550.294C474.356 549.06 476.801 547.655 479.237 546.23C478.621 546.03 477.203 545.228 477.203 545.228C479.23 544.81 479.835 544.612 481.073 544.203C485.945 538.495 492.675 534.639 497.757 530.169C499.999 529.966 499.999 529.357 499.999 528.957C500.806 527.939 501.626 526.721 502.631 525.903C507.117 521.84 511.991 518.384 516.067 514.12C521.971 508.215 527.672 502.116 532.962 495.814C537.837 490.124 542.74 484.44 546.81 478.141C552.511 469.405 557.392 460.459 562.482 451.306C566.147 444.813 569.406 438.311 573.08 431.812C573.467 431.196 574.293 430.387 574.905 430.387C580.397 429.772 585.905 429.385 591.197 428.767C592.417 428.567 593.842 427.764 595.065 427.149C594.445 426.131 594.042 424.912 593.438 423.894C592.62 422.661 591.397 421.658 590.579 420.423C589.772 419.422 589.161 418.187 588.55 416.977C587.932 415.975 587.327 415.157 586.716 414.123C585.48 411.887 584.264 409.651 583.235 407.23C583.035 406.615 582.618 405.61 582.833 404.994C586.501 397.075 587.923 388.539 591.382 380.611C594.84 372.484 595.867 363.338 597.494 354.6C598.917 346.274 599.737 337.945 600.742 329.618C601.362 323.726 602.171 318.036 602.366 312.145C603.604 302.799 603.187 294.054 602.984 285.31C602.784 277.599 602.366 269.673 601.979 261.945L601.955 261.923ZM91.2121 512.054C89.7895 510.435 88.5671 508.602 87.1445 506.981L87.7601 506.366C89.9808 508.806 92.2235 511.247 94.4618 513.89C93.2393 513.274 91.8145 512.872 91.2121 512.054ZM94.4618 513.89C95.0796 513.681 95.6996 513.681 96.3021 513.481C96.9221 514.499 97.3223 515.717 97.9269 516.935C95.0796 516.728 93.657 515.51 94.4684 513.89H94.4618ZM306.186 597.81V597.194C310.053 596.792 313.712 596.383 317.58 595.983V596.576C313.71 597.192 310.053 597.579 306.186 597.794V597.81ZM357.473 592.528C354.632 593.144 351.578 593.553 348.731 593.962C347.711 594.162 346.488 595.18 346.086 593.346C345.675 593.553 345.266 593.553 344.863 593.762C345.868 596.798 348.322 594.362 350.356 595.58C345.87 596.196 341.614 596.598 337.328 597.201V596.798C338.566 596.6 339.982 596.391 341.198 596.183V595.58C339.169 595.373 337.135 595.171 335.086 595.171C334.49 595.171 333.67 595.989 333.058 596.189C332.245 596.391 331.434 596.598 330.413 596.598C326.955 596.798 323.496 596.798 320.233 597C320.025 597 319.613 596.798 319.413 596.798V596.183C333.052 594.362 346.488 592.535 360.124 590.708C360.333 591.108 360.333 591.517 360.536 591.917C359.313 591.917 358.502 592.341 357.479 592.535L357.473 592.528ZM360.536 590.506C365.223 589.89 369.508 589.49 373.981 588.887C364.621 591.526 361.565 591.926 360.542 590.508L360.536 590.506ZM183.228 180.241C189.725 171.297 196.455 162.352 202.968 153.214C205.004 150.554 206.629 147.709 208.662 145.07C209.28 144.253 210.092 143.852 211.107 143.034L210.905 142.65C211.719 141.625 212.53 140.798 212.939 139.998C213.977 138.378 214.588 136.542 215.401 134.715C215.599 134.33 216.213 133.921 216.213 133.921C219.073 135.339 219.073 132.3 220.08 131.276C221.904 129.228 223.669 127.127 225.37 124.976C226.593 123.356 227.815 121.929 228.835 120.102C229.038 119.486 228.427 118.484 228.218 117.657H227.615C228.233 117.257 228.835 116.657 229.447 116.239C229.649 116.239 229.649 116.239 229.849 116.039C231.072 114.203 232.294 112.376 233.517 110.749C235.953 107.51 238.6 104.256 241.445 101.417C241.043 102.42 240.632 103.447 240.223 104.256C240.431 104.256 240.431 104.465 240.634 104.465C243.079 101.211 245.724 98.1633 248.169 94.9026C247.96 94.7091 247.758 94.5024 247.549 94.5024C246.544 95.5204 245.724 96.5362 244.701 97.5542C244.501 97.3476 244.299 97.1475 244.083 97.1475C246.133 94.5024 248.169 91.864 250.196 88.8188C250.605 89.4344 251.014 90.237 251.819 91.864C252.647 89.8368 253.459 88.4164 254.061 86.9917C253.459 87.6073 252.647 88.2097 252.036 88.8254L251.416 88.2098L255.084 82.735C258.953 77.2448 262.819 71.5524 266.686 66.0622C268.117 64.035 269.936 62.408 271.172 60.372C275.041 52.6611 281.154 46.5531 285.826 39.4447C286.846 38.0266 288.269 36.8063 289.491 35.5882C290.498 34.3569 291.325 34.7725 292.136 35.7883C297.629 42.6988 303.121 49.8072 308.613 56.7177C312.698 61.8055 316.768 66.6647 320.636 71.9548C325.315 78.4629 329.793 84.9623 334.481 91.4638C339.773 98.9834 345.063 106.501 350.153 114.212C357.891 125.601 365.214 136.981 372.952 148.357C378.653 156.684 384.354 164.819 389.846 173.148H379.449C369.887 172.954 360.109 172.145 350.549 172.545C337.522 173.161 324.294 174.581 311.267 175.599C294.777 177.026 278.082 177.218 261.605 177.218C255.686 177.218 249.785 178.044 243.89 178.451C236.757 178.853 229.834 179.262 222.71 179.454C214.355 179.871 206.233 180.069 197.878 180.28C193.19 180.478 188.309 180.28 183.219 180.28L183.228 180.241ZM416.712 273.699V275.535C416.51 275.535 416.31 275.744 415.899 275.744C415.085 272.89 414.274 269.836 413.254 266.991C411.22 261.092 408.975 255.192 405.31 249.918C401.225 244.236 397.573 238.353 393.49 232.453C392.483 231.024 391.045 229.808 389.822 228.597C385.544 223.916 381.267 219.035 375.773 215.589C367.679 210.529 359.165 206.174 350.325 202.573C347.88 201.57 345.644 200.337 343.208 198.917H348.082L382.892 198.301C390.425 198.108 397.76 198.108 405.286 197.699C407.111 197.699 408.133 198.314 409.155 199.935C410.98 202.982 412.812 206.025 414.848 209.081C415.057 209.481 415.466 210.084 415.466 210.699C415.466 215.172 415.466 219.846 415.668 224.318C415.862 228.99 416.286 233.465 416.471 238.135C416.471 242.809 416.062 247.682 416.27 252.556C416.479 259.473 416.679 266.59 416.679 273.686L416.712 273.699ZM197.669 205.656C207.238 205.247 216.391 204.638 225.766 204.227C233.075 203.82 240.618 203.611 247.936 203.211C250.992 203.017 253.846 202.824 256.893 203.211C253.646 204.844 250.381 206.471 247.533 208.501C243.866 210.937 240.416 214.182 236.742 216.827C233.068 219.466 229.812 222.72 226.764 226.172C222.895 230.84 218.618 234.903 214.54 239.375C211.679 242.629 208.429 245.674 205.993 249.131C202.535 253.603 199.481 258.46 196.222 263.55C197.245 244.241 198.465 225.147 197.647 205.64L197.669 205.656ZM330.607 401.131C324.085 402.75 317.379 404.583 310.649 405.397C304.955 406.21 299.044 406.012 293.143 406.012C287.835 406.012 282.745 405.81 277.455 405.397C271.552 404.794 265.648 404.183 259.949 401.54C255.053 399.302 249.969 397.275 245.097 394.83C240.194 392.394 235.313 389.555 231.637 385.083C229.007 381.822 225.333 379.184 222.077 376.339C222.673 378.788 224.209 380.905 226.353 382.231C225.333 383.449 223.908 382.847 221.868 379.586C221.263 379.995 220.652 380.202 220.241 380.404C220.861 378.975 221.465 377.55 222.077 376.339C221.263 374.72 220.243 372.887 219.429 371.251C217.796 368.588 216.236 365.88 214.751 363.131C214.339 362.515 214.339 361.913 213.937 361.302C212.917 360.084 211.894 358.859 211.077 357.641C209.45 355.211 208.027 352.573 205.993 350.13C205.993 350.746 206.202 351.348 206.202 352.166C205.993 352.166 205.793 352.364 205.793 352.364L201.506 342.002C201.306 342.002 201.306 342.002 201.103 342.202L204.764 355.62C204.562 355.62 204.362 355.812 204.144 355.812C203.55 355.011 202.937 354.193 202.519 353.191C202.117 351.555 200.897 351.555 199.89 352.166C199.272 352.573 198.861 353.991 199.069 354.602C200.501 358.057 202.126 361.511 203.757 364.965C204.159 366.183 204.571 367.201 205.182 368.421C205.391 368.828 206.002 369.23 206.002 369.839C206.82 371.458 207.431 373.078 208.445 374.512C210.278 376.948 212.314 379.386 214.146 381.822C215.964 384.258 217.589 386.912 219.221 389.342C219.423 389.749 220.034 389.749 220.228 389.957C221.257 393.003 224.713 395.232 227.158 394.014C227.776 398.686 232.859 400.313 234.893 404.786C232.45 403.768 230.623 402.958 228.992 402.141C228.783 402.341 228.783 402.541 228.574 402.95C231.019 404.168 233.462 405.388 235.691 406.806C237.74 408.04 239.774 409.251 241.608 410.66C244.053 412.899 246.907 414.132 250.35 414.933C250.163 414.317 249.963 414.108 249.963 414.108C255.352 416.612 260.71 419.183 266.035 421.819C244.864 422.237 222.268 422.643 198.854 423.052C198.854 419.198 198.652 415.533 198.652 411.672C198.652 410.051 199.054 408.627 198.845 407C198.227 397.668 198.227 388.306 197.011 379.162C195.798 369.415 195.798 359.862 196.007 350.091C196.2 344.825 195.798 339.341 195.589 334.051C195.589 326.943 195.589 320.017 195.804 312.922C195.804 311.906 196.216 311.097 196.624 310.07H197.245C197.438 310.488 197.245 311.097 197.631 311.303C198.249 311.921 199.272 312.924 199.681 312.724C200.897 311.906 202.728 311.103 203.139 309.87C204.144 307.44 204.562 304.795 204.562 302.359C204.562 300.538 205.382 299.32 206.187 298.093C206.604 297.478 206.805 296.878 207.216 296.066C206.402 295.451 205.591 295.048 204.571 294.241C205.391 292.003 205.188 289.36 208.242 288.149C208.647 287.94 208.647 286.913 208.862 286.313C209.056 284.67 209.249 282.843 209.467 281.223C209.869 281.839 210.085 282.032 210.472 282.432C210.69 282.032 210.89 281.816 210.89 281.816C210.89 281.014 210.69 279.387 210.89 279.387C213.335 278.98 212.312 276.342 213.535 275.124C213.728 274.908 213.326 274.299 213.326 273.89C213.326 273.49 213.326 272.888 213.528 272.888C216.367 272.272 215.964 269.225 217.798 267.798C218.416 267.389 218.612 266.795 219.423 265.77C221.048 268.607 218.2 270.036 217.998 272.063C221.45 270.034 222.47 265.159 220.436 263.734C221.25 263.119 222.059 262.316 222.679 261.498C224.922 259.062 227.351 256.826 229.394 254.388C230.823 252.569 231.637 250.333 233.059 248.506C233.879 247.488 235.504 246.677 236.727 246.061C240.394 244.038 243.844 241.805 246.087 238.35C246.498 237.941 247.109 237.539 247.711 237.132C248.329 236.723 249.552 236.723 249.754 236.114C249.963 235.712 249.352 234.694 248.94 234.085C249.745 233.676 250.567 232.867 252.19 232.049C251.572 233.267 251.377 234.085 250.968 234.903L251.975 235.905C253.815 234.487 256.662 232.867 258.494 231.649C258.494 231.455 257.474 230.646 257.474 230.646C256.26 231.262 254.426 232.267 252.601 233.082C252.986 232.467 252.986 232.064 253.219 231.864C256.058 230.037 258.905 228.21 261.961 226.774C269.076 223.538 276.209 220.284 283.333 217.236C284.557 216.621 286.195 217.036 287.611 217.036C288.216 217.036 288.618 217.036 289.238 216.836C292.486 215.818 295.749 214.8 299.007 213.982C300.469 213.584 301.977 213.382 303.492 213.382C309.583 213.573 315.693 213.573 321.794 213.982C324.442 214.182 326.884 214.791 329.329 215.603C332.377 216.627 335.635 218.045 338.489 219.457C341.925 221.308 345.256 223.347 348.467 225.565C354.37 229.419 359.863 233.691 365.764 237.148C371.465 240.6 375.944 245.274 379.612 250.564C384.097 256.857 389.18 262.547 391.214 270.265L394.264 283.683C394.882 286.119 396.304 288.556 395.693 291.394C394.664 296.484 393.853 301.765 393.041 306.847C392.639 308.891 392.228 310.934 392.437 312.937C392.824 319.263 390.387 324.737 387.951 330.428C387.131 332.255 385.906 334.091 384.895 336.118C385.095 336.318 386.318 336.936 386.52 336.936L388.354 333.282C388.562 333.282 388.562 333.282 388.763 333.488C387.742 336.325 386.929 339.381 385.9 342.226C383.472 348.525 381.027 355.027 377.971 361.117C376.346 364.571 373.486 367.419 371.459 370.681C369.431 373.518 367.8 376.563 365.764 379.208C363.93 381.444 362.105 383.68 359.652 385.298C354.161 389.364 348.46 393.427 342.557 396.681C338.898 398.917 334.619 400.135 330.552 401.153L330.607 401.131ZM222.101 390.336L221.899 390.542C221.472 390.344 220.861 390.142 220.458 389.733L215.571 382.407C215.168 381.807 214.951 381.198 215.168 380.389C217.36 383.784 219.669 387.102 222.092 390.336H222.101ZM348.731 418.171C357.882 414.317 365.417 408.842 372.323 402.534C373.354 401.516 374.368 400.507 375.588 399.68C384.145 394.405 390.442 387.088 396.15 378.962C402.663 369.617 406.941 359.05 412.24 349.097C412.643 348.279 413.045 347.476 413.454 346.861C413.045 370.024 415.697 392.778 418.746 415.744C395.748 416.553 372.332 417.362 348.724 418.18L348.731 418.171ZM555.141 412.081C554.938 412.49 554.521 412.899 554.327 413.312C554.118 412.899 554.118 412.288 553.918 411.465C552.696 414.726 550.048 413.099 548.217 413.099C537.232 413.306 526.032 413.306 515.032 413.306C504.449 413.306 493.665 413.306 483.085 413.492C479.617 413.492 475.95 414.302 472.487 414.508C464.147 414.911 455.799 415.126 447.452 415.32C446.835 415.32 446.23 414.317 445.21 413.499C445.008 413.908 444.59 414.517 443.987 415.326C443.77 414.926 443.367 414.526 442.958 413.915C442.758 414.532 442.549 415.135 442.34 415.535H441.751C441.342 412.699 440.529 410.06 440.529 407.206C440.529 401.116 441.149 395.023 441.342 388.915C441.551 386.079 441.342 383.441 441.342 380.789C442.162 381.405 442.771 381.813 443.585 382.407C443.987 381.616 444.398 381.004 444.807 380.404C444.807 380.404 444.396 380.186 443.987 379.786C444.374 379.577 444.792 379.171 444.792 378.968C444.992 378.353 445.41 377.75 445.41 377.35C445.41 375.921 444.992 374.705 444.792 373.494C444.992 373.494 445.194 373.494 445.41 373.278L446.626 379.369H447.244C446.423 377.959 449.069 376.732 446.835 375.114C446.632 374.905 447.035 373.685 447.035 373.078C446.417 371.869 446.03 370.648 445.41 369.021C445.612 368.821 446.223 368.612 446.835 368.406C446.021 368.003 445.41 367.603 444.799 367.403C446.835 365.567 446.835 364.549 445.001 362.522C445.419 362.329 445.821 362.329 445.821 362.135C445.821 360.301 445.821 358.472 445.419 356.66C445.008 354.609 446.036 352.188 442.974 350.955C443.176 351.57 443.385 351.973 443.787 352.573C443.787 352.573 443.167 352.782 442.565 353.191C439.918 350.746 441.558 347.485 440.938 343.838C442.362 344.246 443.385 344.655 444.396 345.071C443.987 343.637 442.974 342.01 442.362 340.181H441.536V326.765C441.536 326.973 442.958 326.973 443.778 327.182C443.778 326.973 443.972 326.773 443.972 326.564C443.352 325.755 442.541 324.944 441.729 323.926L442.138 323.519C440.513 321.496 441.325 318.66 441.325 318.045V303.817C443.369 305.853 440.32 308.489 443.37 309.709V307.68H443.158C442.958 304.635 442.958 301.589 442.758 298.533H442.356C442.147 298.951 442.147 299.151 441.938 299.56H441.536L442.758 250.995C444.792 253.634 447.028 256.085 448.451 258.706C453.138 267.25 459.242 274.57 464.941 282.287C469.831 288.995 474.303 296.306 478.791 303.214C484.283 311.543 489.573 319.872 495.074 328.198C499.142 334.508 503.429 340.808 507.682 346.907C511.551 352.382 515.634 357.672 519.704 362.96C523.154 367.634 526.821 372.306 530.28 376.979C534.354 382.671 538.424 388.352 542.5 393.843C544.527 396.681 546.77 399.526 548.997 402.374C550.235 403.992 552.062 405.225 553.285 406.228C553.091 406.228 552.883 406.228 552.48 406.028C553.098 406.837 553.485 407.446 553.903 407.853C556.145 409.073 556.348 410.293 555.125 412.127L555.141 412.081ZM565.521 361.295V359.868C565.521 360.271 565.723 360.871 565.521 361.286V361.295ZM572.446 271.691C572.235 271.691 571.022 270.46 570.819 270.258C570.611 270.874 570.819 271.476 570.411 272.294C570.202 271.691 568.786 271.894 568.786 271.291C568.577 274.128 569.999 276.975 569.79 279.82C570.41 279.411 572.847 279.204 573.458 278.602C573.667 278.8 574.078 279.002 574.278 279.002C570.202 282.056 571.222 285.093 573.056 288.564C573.458 289.367 574.68 290.994 573.458 292.621C573.056 293.03 573.667 294.239 573.869 295.266H574.463V295.651L572.631 296.266C572.229 295.651 569.79 294.448 569.79 293.415V303.793C571.826 304.41 571.826 307.249 572.638 308.674C573.064 308.058 573.258 307.649 573.467 307.055L573.676 307.24C573.467 308.458 573.264 309.676 572.855 310.903C572.453 312.724 572.042 314.351 571.848 316.178C571.848 316.378 572.235 316.793 572.235 316.987C570.008 322.077 571.231 327.752 570.417 333.026C569.799 336.881 570.417 340.968 570.008 345.025C569.59 348.479 568.77 352.135 567.966 355.59C567.757 356.205 567.348 356.399 566.341 356.808C566.743 354.371 566.543 352.744 566.132 350.508C565.916 350.508 563.271 349.088 563.062 349.088C563.062 351.942 564.685 355.796 565.305 359.035C564.685 358.837 562.249 357.417 562.055 357.417C561.638 359.853 561.638 363.107 561.438 365.745C561.229 367.779 559.402 369.6 559.195 371.836C559.195 373.069 560.617 373.872 560.415 375.908H562.042C562.042 371.851 563.883 368.197 563.883 363.925H564.485C564.694 364.334 565.305 364.743 565.103 364.943C564.694 367.179 563.865 369.615 564.083 371.851C564.083 373.069 565.087 374.287 564.7 375.708C564.283 376.939 564.083 378.15 563.874 379.98C563.665 378.962 563.465 378.559 563.465 377.95C563.263 377.95 561.429 377.744 561.222 377.744C561.02 378.962 562.651 380.18 562.442 381.196C562.242 381.398 562.04 381.398 561.629 381.607L554.916 371.845C549.566 364.093 544.269 356.304 539.026 348.479C537.655 346.541 536.428 344.506 535.354 342.389C529.049 331.608 522.125 321.244 514.39 311.288C508.495 303.777 503.792 295.633 498.3 287.731C493.225 280.211 488.135 272.894 483.045 265.37C481.211 262.941 478.978 260.705 477.344 258.06C472.06 249.731 467.364 241.195 462.089 232.867C457.604 225.95 452.729 219.241 448.04 212.54C446.417 210.304 444.792 207.861 443.152 205.423C442.952 205.038 442.749 204.631 442.749 204.02C442.34 199.548 441.929 195.076 441.729 190.81C441.729 186.747 442.138 182.684 442.138 178.409V174.757C442.138 173.739 442.332 172.928 442.332 171.903C442.525 171.71 442.734 171.301 442.934 171.101C437.033 171.101 430.923 170.885 425.019 171.101C421.152 171.294 419.118 169.667 416.471 166.822C408.736 158.085 403.036 148.131 396.319 138.784C390.009 129.84 383.494 121.096 376.982 112.358C371.683 105.248 366.384 98.3392 361.101 91.2286C355.19 83.1022 349.496 74.9758 343.386 66.8472C336.053 57.1003 328.518 47.3381 320.992 37.5912C317.509 33.1191 313.642 28.8558 309.774 24.1747C312.428 24.5925 314.879 24.9927 317.316 25.1993L327.093 25.815C334.419 26.4086 341.745 26.8198 349.063 27.8224C355.175 28.6469 361.288 29.865 367.598 30.8742C381.043 33.1125 394.27 36.7733 407.095 41.0388C414.63 43.475 421.948 46.729 429.298 49.7742C445.775 56.4847 461.454 64.6111 476.926 73.1398C481.798 75.7849 484.661 80.0482 488.313 83.9135C493.612 89.4015 498.911 94.885 503.992 100.569C509.887 107.275 515.379 114.185 521.087 121.096C526.17 127.186 531.454 133.277 536.559 139.385C538.184 141.214 539.422 143.45 540.829 145.477C544.079 150.358 547.753 155.039 550.6 160.314C552.625 164.184 553.848 168.656 555.272 172.921C557.297 179.221 559.34 185.313 561.385 191.613C562.808 196.364 564.026 201.175 565.035 206.032C565.855 209.295 565.652 212.742 566.659 215.981C567.897 220.268 566.66 224.925 567.897 229.204C568.089 229.613 568.282 230.222 568.5 230.631C569.313 231.433 569.922 232.251 568.7 233.467C568.506 233.669 568.506 234.472 568.7 235.087C569.118 234.687 569.32 234.278 569.729 233.669C569.729 234.078 569.922 234.285 569.922 234.478C569.922 235.281 569.714 236.099 569.922 236.908C569.922 237.308 570.325 237.911 570.527 238.326C570.936 237.908 571.341 237.711 572.152 237.093C573.983 244.01 574.192 250.918 574.192 258.029C574.192 264.737 575.408 271.445 572.57 277.947C573.172 275.711 571.75 273.666 572.361 271.637L572.446 271.691Z" fill="#9772F7"/>
<path d="M442.371 350.715C442.565 350.715 442.774 350.924 442.774 350.924L442.565 350.693C442.565 350.5 442.565 350.5 442.363 350.693L442.371 350.715ZM474.527 551.481C472.285 553.101 470.042 554.528 467.195 555.137C466.977 554.935 466.977 554.728 466.777 554.519C469.02 553.101 471.456 551.683 473.701 550.254C473.91 550.641 474.319 551.056 474.521 551.465L474.527 551.481ZM92.8371 276.135C95.0798 273.305 97.3225 270.462 99.752 267.615C99.9455 267.815 101.57 268.231 101.779 268.424C99.5366 271.278 96.4803 275.135 94.2443 278.18C93.8265 277.771 93.2153 276.353 92.8151 276.144L92.8371 276.135ZM35.0112 375.725C33.3886 372.271 31.7638 368.608 30.1389 365.161C30.3412 364.952 31.766 364.343 31.9638 364.343C34.2065 367.581 35.2135 371.438 36.8538 374.907C36.8538 374.907 35.2289 375.717 35.02 375.717L35.0112 375.725ZM86.9336 278.18C85.7133 280.016 84.4908 282.05 83.2684 283.886C83.0661 283.67 80.8234 284.688 80.6233 284.488C81.8436 282.659 84.8932 279.398 86.1135 277.577C86.3223 277.778 86.5246 277.986 86.9336 278.193V278.18ZM452.754 559.827C452.945 559.827 452.945 559.627 453.154 559.627C454.576 559.825 456.201 560.027 457.835 560.027C455.174 561.854 453.541 561.648 452.73 559.827H452.754ZM87.3184 286.711C87.536 286.095 87.9384 285.493 88.3474 284.884C88.7497 284.884 89.3544 284.675 89.3544 284.675C90.1811 283.257 90.1811 282.239 90.9946 281.021C90.7923 280.821 90.5834 280.821 90.3746 280.612C89.1609 281.445 87.9384 282.463 86.7159 283.272C87.1249 283.672 87.1249 283.888 87.1249 284.29C85.5022 284.081 84.8822 284.906 84.0687 287.126C83.8708 287.744 82.8484 287.944 81.826 288.747C81.6259 289.165 81.4236 290.18 81.0147 291.192L81.2236 291.407C80.8124 291.816 80.2034 292.023 80.2034 292.023C78.9809 293.234 77.5561 294.261 76.3336 295.47C76.1336 296.086 75.9313 296.689 75.9313 297.298C77.3626 295.879 79.801 293.234 81.6325 291.607L81.8414 291.816C82.6549 290.598 83.2662 289.38 84.0841 288.162C84.2798 288.36 84.2798 288.562 84.4886 288.778C83.8686 290.398 83.2662 292.216 82.6549 293.843C82.2284 294.044 81.6171 294.459 81.6171 294.252C80.8058 294.868 80.1946 295.671 79.3745 296.282L75.7158 298.718C73.682 300.545 71.6482 302.163 69.4034 303.999C67.9808 306.235 66.556 308.265 64.918 310.91C67.3695 310.292 67.9808 311.317 67.7785 313.353C70.6258 313.755 70.8347 311.528 71.6482 309.901C71.8461 309.483 72.0572 308.665 72.4595 308.465C74.2933 306.844 76.327 305.426 78.3608 303.799C78.772 303.39 78.772 302.566 78.772 301.963C78.772 301.765 77.743 301.765 77.1318 301.554C78.9655 299.52 81.6171 296.08 83.4421 293.843C84.4645 293.228 85.478 292.41 85.478 291.799C85.278 289.565 86.7005 288.962 88.3408 288.147C87.5206 287.529 87.3118 286.935 87.3118 286.735L87.3184 286.711Z" fill="#9772F7"/>
<path d="M91.4056 284.477C90.5921 285.895 89.7808 287.115 88.9695 288.54L87.747 287.924C86.9334 292.59 84.0795 296.653 81.2322 297.462C82.0457 297.871 82.8592 298.28 83.4749 298.078C84.0795 297.871 84.4819 296.847 84.893 296.244L90.3854 288.318L92.2257 285.262L91.4122 284.455L91.4056 284.477ZM23.6262 373.678C24.6464 373.678 25.6688 373.881 26.8759 373.881C26.8759 373.069 27.9049 373.263 27.9049 372.46H28.5227C28.5227 373.478 28.725 374.287 28.725 375.314H24.4529C24.244 375.105 23.4327 373.881 23.6328 373.678H23.6262ZM22.0014 364.334C21.3835 363.718 20.3765 363.116 20.3765 362.507C20.1676 361.704 20.7789 360.693 21.3835 359.675C21.8013 361.095 22.0013 362.313 22.4037 363.74C22.1948 363.931 21.9948 364.14 21.9948 364.34L22.0014 364.334ZM27.0914 351.324C27.9049 353.375 28.7162 355.612 29.5363 357.648C29.334 357.648 28.1138 358.263 27.9115 358.457C27.098 356.421 26.0777 354.185 25.2664 352.157C25.4665 351.957 26.689 351.339 27.1001 351.339L27.0914 351.324ZM480.244 545.597C481.249 545.197 482.471 544.981 484.114 544.594C482.271 546.006 480.846 547.024 479.626 548.244C479.417 548.042 479.215 547.833 479.006 547.833C479.417 547.024 479.826 546.415 480.244 545.597ZM230.027 116.237C231.243 115.419 232.27 114.81 233.486 114L233.888 114.401C232.65 116.021 231.645 117.639 230.214 119.684C230.012 118.273 230.012 117.448 229.803 116.445C229.603 116.445 229.803 116.445 230.012 116.245L230.027 116.237ZM289.669 219.048C291.503 218.232 293.337 217.43 295.573 216.403C295.37 217.623 295.37 218.439 295.37 219.257C294.753 219.048 293.941 218.839 293.328 218.839C292.105 219.048 289.863 220.675 288.842 220.877C288.649 220.877 289.663 219.257 289.663 219.048H289.669ZM442.369 391.36C442.774 393.39 446.641 394.405 442.774 396.435C443.392 396.859 443.987 397.05 444.599 397.468C444.599 397.675 444.396 398.084 444.196 398.286C443.785 398.477 442.974 398.886 442.571 398.671C442.363 398.671 441.954 397.868 441.954 397.462C441.954 395.632 442.162 393.805 442.363 391.369L442.369 391.36Z" fill="#9772F7"/>
</svg>
